<svg xmlns="http://www.w3.org/2000/svg" width="144.458" height="158.304" viewBox="0 0 144.458 158.304">
  <g id="Group_378" data-name="Group 378" transform="translate(-96.692 -87)">
    <path id="Path_102" data-name="Path 102" d="M1329.228,250h9.23v78.46H1200V250h9.23" transform="translate(-1100.308 -86.156)" fill="#2db5ea" stroke="#003a64" stroke-miterlimit="10" stroke-width="6"/>
    <path id="Path_103" data-name="Path 103" d="M1220,168.46,1280,210l60-41.538V90H1220Z" transform="translate(-1111.078 0)" fill="#fff" stroke="#003a64" stroke-miterlimit="10" stroke-width="6"/>
    <path id="Path_104" data-name="Path 104" d="M1348.5,380" transform="translate(-1180.272 -156.157)" fill="none" stroke="#003a64" stroke-miterlimit="10" stroke-width="6"/>
    <path id="Path_105" data-name="Path 105" d="M1338.458,250l-69.229,46.153L1200,250" transform="translate(-1100.308 -86.156)" fill="none" stroke="#003a64" stroke-miterlimit="10" stroke-width="6"/>
    <line id="Line_30" data-name="Line 30" y1="36.922" x2="59.999" transform="translate(99.692 205.382)" fill="none" stroke="#003a64" stroke-miterlimit="10" stroke-width="6"/>
    <line id="Line_31" data-name="Line 31" x1="59.999" y1="36.922" transform="translate(178.152 205.382)" fill="none" stroke="#003a64" stroke-miterlimit="10" stroke-width="6"/>
    <line id="Line_32" data-name="Line 32" x2="92.306" transform="translate(122.768 117.692)" fill="none" stroke="#248ccd" stroke-miterlimit="10" stroke-width="12"/>
    <line id="Line_33" data-name="Line 33" x2="92.306" transform="translate(122.768 145.383)" fill="none" stroke="#248ccd" stroke-miterlimit="10" stroke-width="6"/>
    <line id="Line_34" data-name="Line 34" x2="92.306" transform="translate(122.768 163.844)" fill="none" stroke="#248ccd" stroke-miterlimit="10" stroke-width="6"/>
    <line id="Line_35" data-name="Line 35" x2="83.075" transform="translate(127.383 182.306)" fill="none" stroke="#248ccd" stroke-miterlimit="10" stroke-width="6"/>
    <path id="Path_106" data-name="Path 106" d="M1220,168.46,1280,210l60-41.538V90H1220Z" transform="translate(-1111.078 0)" fill="none" stroke="#003a64" stroke-miterlimit="10" stroke-width="6"/>
  </g>
</svg>
