<svg xmlns="http://www.w3.org/2000/svg" width="110.723" height="155.025" viewBox="0 0 110.723 155.025">
  <g id="Group_377" data-name="Group 377" transform="translate(-129.992 -47)">
    <path id="Path_111" data-name="Path 111" d="M750.556,110v8.055H694.167V110H670V234.859H774.723V110Z" transform="translate(-537.008 -35.834)" fill="#fff" stroke="#003a64" stroke-miterlimit="10" stroke-width="6"/>
    <line id="Line_36" data-name="Line 36" x2="64.445" transform="translate(161.187 102.36)" fill="none" stroke="#248ccd" stroke-miterlimit="10" stroke-width="6"/>
    <rect id="Rectangle_662" data-name="Rectangle 662" width="8.056" height="8.055" transform="translate(145.076 98.332)" fill="#2db5ea"/>
    <line id="Line_37" data-name="Line 37" x2="64.445" transform="translate(161.187 118.471)" fill="none" stroke="#248ccd" stroke-miterlimit="10" stroke-width="6"/>
    <rect id="Rectangle_663" data-name="Rectangle 663" width="8.056" height="8.055" transform="translate(145.076 114.443)" fill="#2db5ea"/>
    <line id="Line_38" data-name="Line 38" x2="64.445" transform="translate(161.187 134.582)" fill="none" stroke="#248ccd" stroke-miterlimit="10" stroke-width="6"/>
    <rect id="Rectangle_664" data-name="Rectangle 664" width="8.056" height="8.055" transform="translate(145.076 130.554)" fill="#2db5ea"/>
    <line id="Line_39" data-name="Line 39" x2="64.445" transform="translate(161.187 150.692)" fill="none" stroke="#248ccd" stroke-miterlimit="10" stroke-width="6"/>
    <rect id="Rectangle_665" data-name="Rectangle 665" width="8.056" height="8.055" transform="translate(145.076 146.665)" fill="#2db5ea"/>
    <line id="Line_40" data-name="Line 40" x2="64.445" transform="translate(161.187 166.803)" fill="none" stroke="#248ccd" stroke-miterlimit="10" stroke-width="6"/>
    <rect id="Rectangle_666" data-name="Rectangle 666" width="8.056" height="8.055" transform="translate(145.076 162.776)" fill="#2db5ea"/>
    <line id="Line_41" data-name="Line 41" x2="40.278" transform="translate(185.354 182.914)" fill="none" stroke="#248ccd" stroke-miterlimit="10" stroke-width="6"/>
    <path id="Path_112" data-name="Path 112" d="M771.485,66.111V62.687A12.724,12.724,0,0,0,758.8,50h0a12.725,12.725,0,0,0-12.687,12.687v3.424H730V82.222h56.389V66.111Z" transform="translate(-572.841 0)" fill="#248ccd" stroke="#003a64" stroke-miterlimit="10" stroke-width="6"/>
  </g>
</svg>
