<svg xmlns="http://www.w3.org/2000/svg" width="178.834" height="150.928" viewBox="0 0 178.834 150.928">
  <g id="Group_379" data-name="Group 379" transform="translate(-60.36 -71)">
    <g id="Group_373" data-name="Group 373" transform="translate(63.36 74)">
      <rect id="Rectangle_667" data-name="Rectangle 667" width="137.773" height="105.627" rx="18.81" transform="translate(0 18.37)" fill="#fff" stroke="#003a64" stroke-miterlimit="10" stroke-width="6"/>
      <rect id="Rectangle_668" data-name="Rectangle 668" width="137.773" height="78.299" transform="translate(0 31.92)" fill="#88d0ea"/>
      <rect id="Rectangle_669" data-name="Rectangle 669" width="64.294" height="4.592" transform="translate(36.74 140.336)" fill="#ededed" stroke="#003a64" stroke-miterlimit="10" stroke-width="6"/>
      <rect id="Rectangle_670" data-name="Rectangle 670" width="27.555" height="16.339" transform="translate(55.109 123.997)" fill="#dadada" stroke="#003a64" stroke-miterlimit="10" stroke-width="6"/>
      <rect id="Rectangle_671" data-name="Rectangle 671" width="101.034" height="59.702" transform="translate(18.37 41.332)" fill="#fff"/>
      <rect id="Rectangle_672" data-name="Rectangle 672" width="101.034" height="9.185" transform="translate(18.37 41.332)" fill="#248ccd"/>
      <rect id="Rectangle_673" data-name="Rectangle 673" width="59.702" height="41.332" transform="translate(22.962 55.11)" fill="#248ccd"/>
      <rect id="Rectangle_674" data-name="Rectangle 674" width="27.555" height="41.332" transform="translate(87.256 55.11)" fill="#248ccd"/>
      <g id="Group_372" data-name="Group 372" transform="translate(91.849)">
        <rect id="Rectangle_675" data-name="Rectangle 675" width="4.592" height="36.74" transform="translate(50.517 56.686) rotate(-45)" fill="#1d1d1b" stroke="#003a64" stroke-miterlimit="10" stroke-width="6"/>
        <path id="Path_113" data-name="Path 113" d="M328.507,100a32.147,32.147,0,1,0,32.147,32.147A32.147,32.147,0,0,0,328.507,100Zm0,59.7a27.555,27.555,0,1,1,27.555-27.555A27.555,27.555,0,0,1,328.507,159.7Z" transform="translate(-296.36 -100)" fill="#1d1d1b" stroke="#003a64" stroke-miterlimit="10" stroke-width="6"/>
      </g>
      <path id="Path_114" data-name="Path 114" d="M13.457,0H124.316a13.457,13.457,0,0,1,13.457,13.457V92.169a13.457,13.457,0,0,1-13.457,13.457H13.457A13.457,13.457,0,0,1,0,92.169V13.457A13.457,13.457,0,0,1,13.457,0Z" transform="translate(0 18.37)" fill="none" stroke="#003a64" stroke-width="6"/>
    </g>
  </g>
</svg>
